HIERARCHY
ROOT root
{
	OFFSET	0	13.1	24.9
	CHANNELS 6  Xposition Yposition Zposition Xrotation Yrotation Zrotation
	JOINT spine_1
	{
		OFFSET	0	9.99999	0
		CHANNELS 3  Xrotation Yrotation Zrotation
		JOINT spine_2
		{
			OFFSET	0	112	-10
			CHANNELS 3  Xrotation Yrotation Zrotation
			JOINT spine_3
			{
				OFFSET	0	206.5	19.3
				CHANNELS 3  Xrotation Yrotation Zrotation
				JOINT spine_4
				{
					OFFSET	0	110.4	14.6
					CHANNELS 3  Xrotation Yrotation Zrotation
					JOINT neck_1
					{
						OFFSET	0	71.8	-50.3
						CHANNELS 3  Xrotation Yrotation Zrotation
						JOINT neck_2
						{
							OFFSET	0	86.2	-25.8
							CHANNELS 3  Xrotation Yrotation Zrotation
							JOINT head_ee
							{
								OFFSET	0	179.8	-8.7
								CHANNELS 3  Xrotation Yrotation Zrotation
								End Site
								{
									OFFSET	1	0	0
								}
							}
						}
					}
					JOINT left_clavicle
					{
						OFFSET	-43.2	22.4	-70.8
						CHANNELS 3  Xrotation Yrotation Zrotation
						JOINT left_shoulder
						{
							OFFSET	-93.9	-5.79999	48.7
							CHANNELS 3  Xrotation Yrotation Zrotation
							JOINT left_elbow
							{
								OFFSET	-291.4	-30.8	15.2
								CHANNELS 3  Xrotation Yrotation Zrotation
								JOINT left_lowarm_twist
								{
									OFFSET	-110.7	-3.89999	13.6
									CHANNELS 3  Xrotation Yrotation Zrotation
									JOINT left_hand
									{
										OFFSET	-110.7	-3.89999	13.6
										CHANNELS 3  Xrotation Yrotation Zrotation
										JOINT left_ee
										{
											OFFSET	-80.8	-5.10001	12.1
											CHANNELS 3  Xrotation Yrotation Zrotation
											End Site
											{
												OFFSET	1	0	0
											}
										}
									}
								}
							}
						}
					}
					JOINT right_clavicle
					{
						OFFSET	43.2	22.4	-70.8
						CHANNELS 3  Xrotation Yrotation Zrotation
						JOINT right_shoulder
						{
							OFFSET	93.9	-5.79999	48.7
							CHANNELS 3  Xrotation Yrotation Zrotation
							JOINT right_elbow
							{
								OFFSET	291.4	-30.8	15.2
								CHANNELS 3  Xrotation Yrotation Zrotation
								JOINT right_lowarm_twist
								{
									OFFSET	110.7	-3.89999	13.6
									CHANNELS 3  Xrotation Yrotation Zrotation
									JOINT right_hand
									{
										OFFSET	110.7	-3.89999	13.6
										CHANNELS 3  Xrotation Yrotation Zrotation
										JOINT right_ee
										{
											OFFSET	80.8	-5.10001	12.1
											CHANNELS 3  Xrotation Yrotation Zrotation
											End Site
											{
												OFFSET	1	0	0
											}
										}
									}
								}
							}
						}
					}
				}
			}
		}
	}
	JOINT left_hip
	{
		OFFSET	-82.8	-127.5	0.300001
		CHANNELS 3  Xrotation Yrotation Zrotation
		JOINT left_knee
		{
			OFFSET	-28.2	-396.7	2.2
			CHANNELS 3  Xrotation Yrotation Zrotation
			JOINT left_ankle
			{
				OFFSET	-11.7	-411.3	35.4
				CHANNELS 3  Xrotation Yrotation Zrotation
				JOINT left_toes
				{
					OFFSET	0	-60	-88.6
					CHANNELS 3  Xrotation Yrotation Zrotation
					JOINT left_foot_ee
					{
						OFFSET	-22.5	-16.5	-42.2
						CHANNELS 3  Xrotation Yrotation Zrotation
						End Site
						{
							OFFSET	1	0	0
						}
					}
				}
			}
		}
	}
	JOINT right_hip
	{
		OFFSET	82.8	-127.5	0.300001
		CHANNELS 3  Xrotation Yrotation Zrotation
		JOINT right_knee
		{
			OFFSET	28.2	-396.7	2.2
			CHANNELS 3  Xrotation Yrotation Zrotation
			JOINT right_ankle
			{
				OFFSET	11.7	-411.3	35.4
				CHANNELS 3  Xrotation Yrotation Zrotation
				JOINT right_toes
				{
					OFFSET	0	-60	-88.6
					CHANNELS 3  Xrotation Yrotation Zrotation
					JOINT right_foot_ee
					{
						OFFSET	22.5	-16.5	-42.2
						CHANNELS 3  Xrotation Yrotation Zrotation
						End Site
						{
							OFFSET	1	0	0
						}
					}
				}
			}
		}
	}
}
MOTION
Frames: 6
Frame Time: 0.02
2800.94 716.97 -1473.77 1.45294148645 59.5339415413 -11.7704465578 2.5604 0.655797 5.20144 2.57538 0.323951 5.23251 2.60208 -0.54795 5.21387 2.56428 0.281196 5.23498 -6.20165 18.4845 -5.05611 -5.92923 37.9068 -1.54883 -0.0 0.0 -0.0 -5.8392 14.1265 -7.92846 11.9935 -13.6929 57.5046 3.47344 -59.8211 1.99858 -17.8031 -0.955194 2.05718 -2.02122 14.3804 -6.704 -0.0 0.0 -0.0 10.7455 7.62066 -21.4701 -24.0978 20.575 -71.1705 0.189542 5.36412 -0.00887914 16.4663 -0.28345 2.0771 -2.00473 17.3495 21.1918 0.0 0.0 0.0 -33.5551 17.7344 23.3747 7.6317 -0.388592 -1.10527 23.2541 -0.71918 -3.15298 -30.92 0.0 0.0 -0.0 0.0 -0.0 19.3375 1.09063 -5.30587 -1.59094 -0.0622295 -0.236215 13.6451 20.7968 2.17563 -28.6185 0.0 0.0 0.0 0.0 0.0 
2800.94 716.97 -1473.77 1.41136943179 58.5362330756 -11.721966879 2.5604 0.655797 5.20144 2.57538 0.323951 5.23251 2.60208 -0.54795 5.21387 2.56428 0.281196 5.23498 -6.20165 18.4845 -5.05611 -5.92923 37.9068 -1.54883 -0.0 0.0 -0.0 -5.8392 14.1265 -7.92846 11.9935 -13.6929 57.5046 3.47344 -59.8211 1.99858 -17.8031 -0.955194 2.05718 -2.02122 14.3804 -6.704 -0.0 0.0 -0.0 10.7455 7.62066 -21.4701 -24.0978 20.575 -71.1705 0.189542 5.36412 -0.00887914 16.4663 -0.28345 2.0771 -2.00473 17.3495 21.1918 0.0 0.0 0.0 -33.5551 17.7344 23.3747 7.6317 -0.388592 -1.10527 23.2541 -0.71918 -3.15298 -30.92 0.0 0.0 -0.0 0.0 -0.0 19.3375 1.09063 -5.30587 -1.59094 -0.0622295 -0.236215 13.6451 20.7968 2.17563 -28.6185 0.0 0.0 0.0 0.0 0.0 
2800.94 716.97 -1473.77 1.35101459848 56.9567125126 -11.6506065189 2.5604 0.655797 5.20144 2.57538 0.323951 5.23251 2.60208 -0.54795 5.21387 2.56428 0.281196 5.23498 -6.20165 18.4845 -5.05611 -5.92923 37.9068 -1.54883 -0.0 0.0 -0.0 -5.8392 14.1265 -7.92846 11.9935 -13.6929 57.5046 3.47344 -59.8211 1.99858 -17.8031 -0.955194 2.05718 -2.02122 14.3804 -6.704 -0.0 0.0 -0.0 10.7455 7.62066 -21.4701 -24.0978 20.575 -71.1705 0.189542 5.36412 -0.00887914 16.4663 -0.28345 2.0771 -2.00473 17.3495 21.1918 0.0 0.0 0.0 -33.5551 17.7344 23.3747 7.6317 -0.388592 -1.10527 23.2541 -0.71918 -3.15298 -30.92 0.0 0.0 -0.0 0.0 -0.0 19.3375 1.09063 -5.30587 -1.59094 -0.0622295 -0.236215 13.6451 20.7968 2.17563 -28.6185 0.0 0.0 0.0 0.0 0.0 
2778.01322039 714.708 -1476.9618767 2.18023043112 55.9597957042 -12.8197641669 2.61491 0.810715 5.08009 2.62913 0.486248 5.12123 2.66979 -0.362656 5.13144 2.63335 0.451219 5.12443 -5.86351 18.2344 -5.89031 -5.48259 38.0093 -2.59396 -0.0 0.0 -0.0 -6.25713 15.7079 -8.18663 9.28805 -13.6225 58.3109 3.12584 -57.1331 1.70219 -17.2704 -0.917517 2.00033 -1.92565 14.9697 -5.82007 -0.0 0.0 -0.0 10.7416 7.11651 -21.4561 -23.712 23.1559 -70.9337 0.187393 5.30365 -0.00867937 15.8778 -0.283671 2.00194 -1.85262 18.0137 20.383 0.0 0.0 0.0 -28.4435 19.6876 20.7704 -10.9546 0.293773 1.65295 29.41 0.360713 -3.8445 -28.005 0.0 0.0 -0.0 0.0 -0.0 17.9148 2.28797 -4.83445 -1.53496 -0.060152 -0.227876 19.1711 21.5583 2.99542 -27.4463 0.0 0.0 0.0 0.0 0.0 
2778.08311171 714.708 -1477.42895585 2.11675711174 54.7916093315 -12.7426340587 2.61491 0.810715 5.08009 2.62913 0.486248 5.12123 2.66979 -0.362656 5.13144 2.63335 0.451219 5.12443 -5.86351 18.2344 -5.89031 -5.48259 38.0093 -2.59396 -0.0 0.0 -0.0 -6.25713 15.7079 -8.18663 9.28805 -13.6225 58.3109 3.12584 -57.1331 1.70219 -17.2704 -0.917517 2.00033 -1.92565 14.9697 -5.82007 -0.0 0.0 -0.0 10.7416 7.11651 -21.4561 -23.712 23.1559 -70.9337 0.187393 5.30365 -0.00867937 15.8778 -0.283671 2.00194 -1.85262 18.0137 20.383 0.0 0.0 0.0 -28.4435 19.6876 20.7704 -10.9546 0.293773 1.65295 29.41 0.360713 -3.8445 -28.005 0.0 0.0 -0.0 0.0 -0.0 17.9148 2.28797 -4.83445 -1.53496 -0.060152 -0.227876 19.1711 21.5583 2.99542 -27.4463 0.0 0.0 0.0 0.0 0.0 
2721.25517619 728.599 -1490.02332748 2.57399424566 55.0109874409 -12.6605915121 2.39067 0.860874 4.61351 2.40233 0.565887 4.6588 2.44691 -0.225862 4.68754 2.41663 0.516459 4.66453 -4.33182 17.936 -8.07972 -3.47865 38.9304 -5.58556 -0.0 0.0 -0.0 -6.64341 15.9421 -8.75396 0.597186 -16.55 62.526 1.84628 -42.4417 0.716952 -14.8744 -0.754659 1.74044 -1.26655 15.7106 -1.39448 -0.0 0.0 -0.0 11.3329 8.49155 -22.773 -21.2478 28.4232 -71.7142 0.199718 5.65028 -0.00985576 14.4145 -0.280876 1.81506 -1.57779 19.3813 19.0045 0.0 0.0 0.0 -13.6207 23.9548 13.9051 -47.08 -0.977474 6.95942 40.3258 -0.714467 -4.90943 -22.2679 0.0 0.0 -0.0 0.0 -0.0 14.5363 4.01103 -3.5248 -3.2346 -0.119599 -0.481935 29.9991 24.4091 4.50993 -24.0349 0.0 0.0 0.0 0.0 0.0 
